<?xml version="1.0" encoding="UTF-8" standalone="no"?>
<!DOCTYPE svg PUBLIC "-//W3C//DTD SVG 1.1//EN" "http://www.w3.org/Graphics/SVG/1.1/DTD/svg11.dtd">
<svg width="100%" height="100%" viewBox="0 0 1280 350" version="1.1" xmlns="http://www.w3.org/2000/svg" xmlns:xlink="http://www.w3.org/1999/xlink" xml:space="preserve" xmlns:serif="http://www.serif.com/" style="fill-rule:evenodd;clip-rule:evenodd;stroke-linejoin:round;stroke-miterlimit:2;">
    <g id="Artboard1" transform="matrix(0.968963,0,0,0.94086,21.3172,12.2312)">
        <rect x="-22" y="-13" width="1321" height="372" style="fill:none;"/>
        <g transform="matrix(0.384316,0,0,0.395795,472.126,215.819)">
            <path d="M0,-37.097C-1.815,-64.837 -8.002,-90.173 -18.557,-113.104C-29.109,-136.021 -42.682,-155.779 -59.269,-172.372C-75.868,-188.953 -95.015,-201.918 -116.732,-211.284C-138.445,-220.624 -161.669,-225.308 -186.398,-225.308C-211.14,-225.308 -234.361,-220.624 -256.074,-211.284C-277.794,-201.918 -296.949,-188.953 -313.538,-172.372C-330.137,-155.779 -343.392,-135.871 -353.353,-112.656C-363.3,-89.422 -369.182,-64.243 -370.993,-37.097L0,-37.097ZM-184.594,225.314C-217.782,225.314 -248.538,218.819 -276.893,205.864C-305.251,192.897 -329.824,175.092 -350.64,152.471C-371.441,129.848 -387.734,103.762 -399.497,74.198C-411.256,44.653 -417.142,12.985 -417.142,-20.806C-417.142,-53.982 -411.256,-85.201 -399.497,-114.46C-387.734,-143.709 -371.604,-169.347 -351.089,-191.375C-330.586,-213.391 -306.298,-230.735 -278.242,-243.406C-250.192,-256.073 -219.877,-262.411 -187.311,-262.411C-154.133,-262.411 -123.369,-255.92 -95.015,-242.951C-66.665,-229.972 -42.239,-212.483 -21.726,-190.468C-1.223,-168.439 14.77,-142.814 26.242,-113.553C37.692,-84.291 43.424,-53.389 43.424,-20.806L43.424,-9.496C43.424,-4.977 43.121,-2.104 42.529,-0.898L-370.094,-0.898C-368.278,26.242 -361.948,51.438 -351.089,74.653C-340.229,97.881 -326.516,117.947 -309.916,134.826C-293.329,151.718 -274.176,164.998 -252.456,174.645C-230.741,184.301 -207.532,189.116 -182.789,189.116C-166.495,189.116 -150.523,186.857 -134.834,182.332C-119.142,177.808 -104.508,171.626 -90.94,163.781C-77.37,155.947 -65.303,146.452 -54.747,135.281C-44.192,124.123 -35.903,111.905 -29.869,98.632L9.947,109.493C3.307,126.385 -6.487,141.923 -19.452,156.089C-32.429,170.275 -47.501,182.484 -64.695,192.734C-81.892,203.004 -100.748,210.986 -121.249,216.717C-141.763,222.445 -162.881,225.314 -184.594,225.314" style="fill-rule:nonzero;"/>
        </g>
        <g transform="matrix(0.384316,0,0,0.395795,258.403,50.7183)">
            <path d="M0,642.451L0,86.871L-253.359,449.196L-282.312,449.196L-535.674,86.871L-535.674,642.451L-581.818,642.451L-581.818,0L-535.674,0L-267.83,388.582L0,0L46.153,0L46.153,642.451L0,642.451Z" style="fill-rule:nonzero;"/>
        </g>
        <g transform="matrix(0.384316,0,0,0.395795,1097.86,215.819)">
            <path d="M0,-37.097C-1.813,-64.837 -8.005,-90.173 -18.552,-113.104C-29.11,-136.021 -42.682,-155.779 -59.267,-172.372C-75.87,-188.953 -95.009,-201.918 -116.726,-211.284C-138.443,-220.624 -161.669,-225.308 -186.401,-225.308C-211.144,-225.308 -234.359,-220.624 -256.078,-211.284C-277.789,-201.918 -296.953,-188.953 -313.531,-172.372C-330.131,-155.779 -343.396,-135.871 -353.347,-112.656C-363.302,-89.422 -369.182,-64.243 -370.997,-37.097L0,-37.097ZM-184.59,225.314C-217.776,225.314 -248.543,218.819 -276.886,205.864C-305.251,192.897 -329.823,175.092 -350.634,152.471C-371.445,129.848 -387.732,103.762 -399.491,74.198C-411.257,44.653 -417.14,12.985 -417.14,-20.806C-417.14,-53.982 -411.257,-85.201 -399.491,-114.46C-387.732,-143.709 -371.603,-169.347 -351.087,-191.375C-330.586,-213.391 -306.294,-230.735 -278.244,-243.406C-250.195,-256.073 -219.877,-262.411 -187.304,-262.411C-154.136,-262.411 -123.372,-255.92 -95.009,-242.951C-66.665,-229.972 -42.233,-212.483 -21.722,-190.468C-1.217,-168.439 14.773,-142.814 26.242,-113.553C37.692,-84.291 43.428,-53.389 43.428,-20.806L43.428,-9.496C43.428,-4.977 43.119,-2.104 42.526,-0.898L-370.089,-0.898C-368.272,26.242 -361.942,51.438 -351.087,74.653C-340.225,97.881 -326.511,117.947 -309.914,134.826C-293.329,151.718 -274.173,164.998 -252.452,174.645C-230.743,184.301 -207.526,189.116 -182.783,189.116C-166.49,189.116 -150.519,186.857 -134.827,182.332C-119.142,177.808 -104.513,171.626 -90.942,163.781C-77.366,155.947 -65.304,146.452 -54.743,135.281C-44.196,124.123 -35.896,111.905 -29.863,98.632L9.951,109.493C3.307,126.385 -6.491,141.923 -19.454,156.089C-32.432,170.275 -47.505,182.484 -64.699,192.734C-81.89,203.004 -100.748,210.986 -121.251,216.717C-141.765,222.445 -162.877,225.314 -184.59,225.314" style="fill-rule:nonzero;"/>
        </g>
        <g transform="matrix(0.384316,0,0,0.395795,-103.368,-251.57)">
            <rect x="3272.22" y="746.562" width="46.144" height="659.639"/>
        </g>
        <g transform="matrix(0,-0.395795,-0.384316,0,1227.64,273.315)">
            <path d="M-40.022,-40.026C-62.126,-40.026 -80.046,-22.105 -80.046,0.007C-80.046,22.103 -62.126,40.022 -40.022,40.022C-17.926,40.022 -0.002,22.103 -0.002,0.007C-0.002,-22.105 -17.926,-40.026 -40.022,-40.026" style="fill-rule:nonzero;"/>
        </g>
        <g transform="matrix(0.384316,0,0,0.395795,812.737,57.9602)">
            <path d="M0,579.869C-26.332,579.869 -50.708,574.483 -73.155,563.712C-95.59,552.943 -115.34,538.279 -132.398,519.725C-149.455,501.166 -162.779,479.923 -172.346,455.967C-181.924,432.041 -186.71,406.592 -186.71,379.653C-186.71,353.929 -182.527,328.934 -174.134,304.678C-165.767,280.443 -153.799,258.897 -138.235,240.034C-122.682,221.183 -103.826,205.923 -81.678,194.257C-76.401,191.473 -70.975,189.04 -65.423,186.92C-51.098,182.773 -37.492,180.622 -24.667,180.622C1.667,180.622 26.042,186.006 48.486,196.775C70.928,207.552 90.675,222.212 107.729,240.766C124.79,259.316 138.117,280.577 147.682,304.528C157.258,328.448 162.043,353.901 162.043,380.842C162.043,406.569 157.864,431.559 149.469,455.81C141.103,480.048 129.136,501.598 113.569,520.459C98.015,539.307 79.162,554.563 57.015,566.24C51.738,569.024 46.312,571.453 40.756,573.566C26.436,577.715 12.829,579.869 0,579.869M165.27,-44.285L165.27,239.611C158.27,230.755 152.202,222.305 145.032,214.288C129.937,197.389 112.471,183.032 93.126,171.222C92.08,170.532 90.961,169.781 89.895,169.11C74.328,159.232 57.512,151.303 39.57,145.315C21.606,139.341 2.414,136.334 -17.922,136.334C-49.039,136.334 -77.625,142.94 -103.662,156.089C-129.689,169.265 -152.299,186.927 -171.436,209.06C-190.594,231.22 -205.547,256.957 -216.319,286.282C-227.098,315.614 -232.486,346.437 -232.486,378.758C-232.486,409.884 -226.958,439.964 -215.874,469C-204.81,498.027 -189.259,523.757 -169.199,546.198C-154.109,563.107 -136.89,577.457 -117.544,589.275C-116.497,589.972 -115.498,590.71 -114.433,591.385C-98.865,601.261 -82.113,609.186 -64.166,615.171C-46.215,621.15 -27.053,624.154 -6.715,624.154C24.402,624.154 52.974,617.557 79.01,604.4C105.038,591.228 125.734,573.566 144.883,551.434C152.961,542.066 164.937,532.056 164.937,521.418L165.252,614.715L204.27,614.715L204.27,-44.285L165.27,-44.285Z" style="fill-rule:nonzero;"/>
        </g>
        <g transform="matrix(0.384316,0,0,0.395795,679.483,213.512)">
            <path d="M0,-17.948C-2,-107.316 -28.9,-217.713 -144.154,-243.079C-166.513,-248 -187.681,-249.091 -208.26,-246.873C-218.123,-246.219 -227.939,-244.663 -237.35,-242.079C-282.314,-229.735 -314.262,-206.248 -335.926,-176.837L-335.916,-247.857L-381,-247.857L-381,231.143L-336,231.143L-336,-61.835C-329,-119.432 -307.201,-174.814 -239.28,-201.647C-224.082,-207.659 -208.66,-210.429 -193.613,-210.577C-193.338,-210.569 -192.986,-210.539 -192.728,-210.543C-176.122,-211.024 -158.957,-208.326 -142.062,-201.647C-56.908,-168.006 -44.445,-90.406 -43.445,-17.905L-43.439,231.143L0,231.143L0,-17.948Z" style="fill-rule:nonzero;"/>
        </g>
    </g>
</svg>
