<?xml version="1.0" encoding="UTF-8" standalone="no"?><!DOCTYPE svg PUBLIC "-//W3C//DTD SVG 1.1//EN" "http://www.w3.org/Graphics/SVG/1.1/DTD/svg11.dtd"><svg width="100%" height="100%" viewBox="0 0 1280 350" version="1.1" xmlns="http://www.w3.org/2000/svg" xmlns:xlink="http://www.w3.org/1999/xlink" xml:space="preserve" xmlns:serif="http://www.serif.com/" style="fill-rule:evenodd;clip-rule:evenodd;stroke-linejoin:round;stroke-miterlimit:2;"><rect id="Artboard1" x="0" y="0" width="1280" height="350" style="fill:none;"/><path d="M478.79,201.472c-0.676,-10.33 -2.98,-19.765 -6.911,-28.304c-3.929,-8.534 -8.984,-15.891 -15.161,-22.071c-6.181,-6.174 -13.311,-11.002 -21.398,-14.49c-8.086,-3.478 -16.734,-5.222 -25.943,-5.222c-9.213,0 -17.861,1.744 -25.946,5.222c-8.089,3.488 -15.222,8.316 -21.399,14.49c-6.181,6.18 -11.117,13.593 -14.827,22.238c-3.704,8.652 -5.894,18.028 -6.569,28.137l138.154,0Zm-68.741,97.719c-12.359,0 -23.812,-2.419 -34.371,-7.243c-10.56,-4.829 -19.711,-11.459 -27.462,-19.883c-7.746,-8.425 -13.814,-18.139 -18.194,-29.148c-4.379,-11.002 -6.571,-22.795 -6.571,-35.378c0,-12.355 2.192,-23.98 6.571,-34.876c4.38,-10.892 10.387,-20.439 18.026,-28.642c7.635,-8.198 16.68,-14.657 27.128,-19.376c10.445,-4.717 21.734,-7.077 33.861,-7.077c12.355,0 23.811,2.417 34.37,7.247c10.557,4.833 19.653,11.346 27.292,19.544c7.635,8.203 13.591,17.746 17.863,28.642c4.264,10.897 6.398,22.404 6.398,34.538l0,4.211c0,1.683 -0.113,2.753 -0.333,3.202l-153.656,0c0.676,10.107 3.034,19.49 7.077,28.135c4.044,8.649 9.151,16.122 15.333,22.407c6.176,6.291 13.309,11.236 21.397,14.828c8.086,3.596 16.729,5.389 25.943,5.389c6.068,0 12.016,-0.841 17.858,-2.526c5.844,-1.685 11.293,-3.987 16.346,-6.908c5.053,-2.918 9.547,-6.453 13.477,-10.613c3.931,-4.155 7.018,-8.705 9.265,-13.648l14.827,4.045c-2.473,6.29 -6.12,12.076 -10.948,17.351c-4.833,5.283 -10.445,9.829 -16.848,13.646c-6.404,3.825 -13.426,6.797 -21.06,8.931c-7.639,2.133 -15.503,3.202 -23.589,3.202" style="fill:#407500;fill-rule:nonzero;"/><path d="M271.7,299.191l0,-206.891l-94.348,134.925l-10.782,0l-94.349,-134.925l0,206.891l-17.183,0l0,-239.241l17.183,0l99.742,144.703l99.737,-144.703l17.187,0l0,239.241l-17.187,0Z" style="fill:#407500;fill-rule:nonzero;"/><path d="M1085.11,201.472c-0.675,-10.33 -2.981,-19.765 -6.908,-28.304c-3.932,-8.534 -8.986,-15.891 -15.162,-22.071c-6.183,-6.174 -13.31,-11.002 -21.397,-14.49c-8.087,-3.478 -16.736,-5.222 -25.946,-5.222c-9.214,0 -17.859,1.744 -25.947,5.222c-8.085,3.488 -15.221,8.316 -21.395,14.49c-6.181,6.18 -11.121,13.593 -14.827,22.238c-3.707,8.652 -5.896,18.028 -6.572,28.137l138.154,0Zm-68.739,97.719c-12.358,0 -23.815,-2.419 -34.37,-7.243c-10.562,-4.829 -19.713,-11.459 -27.462,-19.883c-7.75,-8.425 -13.815,-18.139 -18.194,-29.148c-4.382,-11.002 -6.572,-22.795 -6.572,-35.378c0,-12.355 2.19,-23.98 6.572,-34.876c4.379,-10.892 10.385,-20.439 18.025,-28.642c7.634,-8.198 16.68,-14.657 27.126,-19.376c10.445,-4.717 21.735,-7.077 33.865,-7.077c12.351,0 23.807,2.417 34.369,7.247c10.555,4.833 19.653,11.346 27.291,19.544c7.636,8.203 13.591,17.746 17.862,28.642c4.263,10.897 6.399,22.404 6.399,34.538l0,4.211c0,1.683 -0.115,2.753 -0.335,3.202l-153.653,0c0.676,10.107 3.034,19.49 7.076,28.135c4.045,8.649 9.152,16.122 15.332,22.407c6.176,6.291 13.31,11.236 21.398,14.828c8.085,3.596 16.73,5.389 25.944,5.389c6.068,0 12.015,-0.841 17.858,-2.526c5.841,-1.685 11.289,-3.987 16.343,-6.908c5.055,-2.918 9.547,-6.453 13.48,-10.613c3.927,-4.155 7.018,-8.705 9.265,-13.648l14.826,4.045c-2.474,6.29 -6.123,12.076 -10.95,17.351c-4.833,5.283 -10.446,9.829 -16.849,13.646c-6.401,3.825 -13.424,6.797 -21.059,8.931c-7.639,2.133 -15.501,3.202 -23.587,3.202" style="fill:#407500;fill-rule:nonzero;"/><rect x="1139.69" y="53.549" width="17.183" height="245.641" style="fill:#407500;"/><path d="M1225.76,284.286c0,8.232 -6.673,14.905 -14.907,14.905c-8.229,0 -14.902,-6.673 -14.902,-14.905c0,-8.228 6.673,-14.903 14.902,-14.903c8.234,0 14.907,6.675 14.907,14.903" style="fill:#407500;fill-rule:nonzero;"/><path d="M808.829,282.7c-9.805,0 -18.883,-2.006 -27.242,-6.017c-8.354,-4.01 -15.709,-9.471 -22.061,-16.38c-6.352,-6.911 -11.314,-14.822 -14.876,-23.743c-3.567,-8.91 -5.349,-18.387 -5.349,-28.418c0,-9.58 1.558,-18.887 4.683,-27.92c3.116,-9.025 7.572,-17.048 13.368,-24.073c5.792,-7.02 12.814,-12.702 21.061,-17.046c1.966,-1.037 3.986,-1.943 6.054,-2.733c5.334,-1.544 10.401,-2.345 15.177,-2.345c9.806,0 18.883,2.005 27.241,6.015c8.357,4.013 15.711,9.473 22.061,16.382c6.354,6.908 11.316,14.825 14.878,23.744c3.566,8.908 5.348,18.386 5.348,28.418c0,9.581 -1.556,18.887 -4.682,27.918c-3.116,9.026 -7.572,17.05 -13.369,24.074c-5.792,7.019 -12.813,12.7 -21.06,17.048c-1.965,1.037 -3.986,1.942 -6.055,2.728c-5.332,1.546 -10.399,2.348 -15.177,2.348m61.545,-232.428l0,105.72c-2.607,-3.298 -4.867,-6.445 -7.537,-9.43c-5.621,-6.293 -12.125,-11.64 -19.329,-16.037c-0.389,-0.257 -0.806,-0.537 -1.203,-0.787c-5.797,-3.678 -12.059,-6.631 -18.74,-8.861c-6.69,-2.225 -13.837,-3.344 -21.41,-3.344c-11.587,0 -22.232,2.46 -31.928,7.356c-9.692,4.907 -18.112,11.484 -25.238,19.726c-7.135,8.252 -12.703,17.836 -16.714,28.756c-4.014,10.923 -6.021,22.401 -6.021,34.437c0,11.591 2.059,22.793 6.187,33.605c4.12,10.81 9.911,20.391 17.381,28.748c5.619,6.297 12.031,11.64 19.235,16.041c0.39,0.26 0.762,0.535 1.159,0.786c5.797,3.678 12.035,6.629 18.719,8.858c6.684,2.226 13.82,3.345 21.394,3.345c11.587,0 22.227,-2.457 31.923,-7.356c9.692,-4.905 17.399,-11.483 24.53,-19.724c3.008,-3.489 7.468,-7.216 7.468,-11.178l0.117,34.743l14.53,0l0,-245.404l-14.523,0Z" style="fill:#407500;fill-rule:nonzero;"/><path d="M679.711,206.432c-0.745,-33.279 -10.762,-74.39 -53.681,-83.836c-8.326,-1.832 -16.209,-2.238 -23.872,-1.412c-3.673,0.243 -7.328,0.823 -10.833,1.785c-16.744,4.597 -28.641,13.343 -36.708,24.295l0.003,-26.447l-16.788,0l0,178.374l16.757,0l0,-109.102c2.607,-21.448 10.724,-42.072 36.017,-52.064c5.66,-2.239 11.403,-3.27 17.006,-3.325c0.103,0.003 0.234,0.014 0.33,0.012c6.184,-0.179 12.576,0.826 18.867,3.313c31.71,12.528 36.351,41.425 36.724,68.423l0.002,92.743l16.176,0l0,-92.759Z" style="fill:#407500;fill-rule:nonzero;"/></svg>